<svg xmlns="http://www.w3.org/2000/svg" version="1.0" preserveAspectRatio="xMidYMid meet" viewBox="27.03 22.57 390.58 385.31">

<g transform="translate(0.000000,498.000000) scale(0.100000,-0.100000)" fill="#000000" stroke="none">
<path d="M2610 4750 c-30 -4 -80 -15 -111 -24 -62 -18 -223 -97 -252 -124 -12 -11 -22 -13 -31 -7 -70 53 -147 95 -226 122 -80 28 -109 33 -185 33 -180 0 -293 -47 -420 -175 -137 -136 -192 -277 -183 -462 9 -157 72 -303 203 -468 77 -96 390 -389 570 -534 117 -94 175 -122 252 -122 116 -1 226 75 527 363 403 385 489 524 490 798 1 155 -20 233 -95 344 -120 180 -338 283 -539 256z m-709 -246 c79 -22 150 -75 199 -147 57 -82 90 -117 111 -117 35 0 87 41 134 106 97 132 250 195 397 165 68 -15 180 -89 220 -147 63 -90 72 -239 24 -367 -45 -119 -68 -151 -220 -306 -246 -250 -491 -461 -536 -461 -15 0 -119 70 -205 139 -105 83 -373 331 -442 409 -110 123 -160 254 -151 398 10 170 103 284 269 328 71 19 133 19 200 0z"/>
<path d="M337 4103 c-15 -10 -37 -37 -48 -61 -21 -42 -21 -53 -16 -475 4 -395 6 -438 25 -507 54 -199 138 -345 286 -499 50 -53 235 -237 411 -409 178 -174 336 -339 357 -370 79 -119 108 -266 108 -555 0 -211 8 -256 50 -299 49 -49 117 -29 157 45 15 28 17 67 17 302 0 310 -7 351 -87 511 -80 158 -145 234 -554 651 -216 219 -401 410 -413 425 -29 37 -76 141 -97 213 -14 51 -18 124 -22 505 -4 310 -10 451 -18 465 -36 64 -106 89 -156 58z"/>
<path d="M3623 4105 c-67 -29 -67 -28 -74 -445 -8 -426 -14 -476 -79 -606 -50 -103 -114 -163 -232 -221 -94 -46 -118 -70 -118 -121 0 -39 13 -66 48 -104 68 -73 243 4 394 174 36 40 76 93 88 118 13 24 33 60 46 80 32 49 61 136 73 224 6 40 11 241 11 445 1 364 1 372 -20 407 -21 33 -66 64 -92 64 -7 -1 -27 -7 -45 -15z"/>
<path d="M4003 4101 c-58 -37 -58 -36 -55 -386 5 -516 -14 -664 -107 -816 -23 -38 -164 -189 -402 -431 -431 -439 -460 -471 -522 -565 -123 -185 -149 -287 -155 -594 -5 -263 3 -323 49 -369 45 -44 90 -42 140 9 36 36 39 43 40 97 0 33 4 160 8 284 8 219 9 227 41 315 17 49 49 114 70 145 21 30 227 245 458 476 326 327 427 434 447 475 15 29 38 69 51 89 30 45 68 157 87 257 21 104 32 900 14 952 -23 67 -105 99 -164 62z"/>
<path d="M736 4089 c-56 -44 -56 -46 -56 -456 1 -271 5 -399 14 -453 18 -99 68 -217 131 -310 137 -201 422 -354 524 -281 39 28 61 69 61 113 0 54 -23 75 -110 103 -44 13 -103 37 -132 51 -76 39 -163 130 -199 210 -54 119 -59 162 -59 572 0 325 -2 378 -16 408 -29 62 -107 83 -158 43z"/>
<path d="M1209 3305 c-36 -19 -63 -78 -56 -122 8 -44 72 -128 150 -195 33 -29 150 -147 260 -262 184 -193 203 -217 240 -294 72 -156 76 -190 84 -856 l6 -589 29 -33 c40 -45 87 -60 126 -40 17 9 40 31 51 49 21 34 21 43 21 576 0 320 -4 581 -11 638 -13 119 -68 306 -116 393 -19 36 -57 94 -83 130 -64 86 -577 596 -613 609 -37 14 -56 13 -88 -4z"/>
<path d="M3119 3298 c-20 -13 -60 -50 -90 -84 -30 -33 -148 -158 -264 -278 -225 -232 -286 -312 -336 -441 -81 -206 -91 -322 -87 -1006 l3 -496 27 -35 c55 -72 124 -72 174 1 l24 36 0 561 c0 583 4 654 45 789 39 126 113 236 216 320 33 28 95 88 137 134 42 46 127 133 188 193 129 126 163 184 144 242 -25 78 -112 108 -181 64z"/>
</g>
</svg>